Coordinates
version=1
nRows=29
nColumns=24
inDegrees=yes

Units are S.I. units (second, meters, Newtons, ...)
Angles are in degrees.

endheader
time	pelvis_tilt	pelvis_list	pelvis_rotation	pelvis_tx	pelvis_ty	pelvis_tz	hip_flexion_r	hip_adduction_r	hip_rotation_r	knee_angle_r	ankle_angle_r	subtalar_angle_r	mtp_angle_r	hip_flexion_l	hip_adduction_l	hip_rotation_l	knee_angle_l	ankle_angle_l	subtalar_angle_l	mtp_angle_l	lumbar_extension	lumbar_bending	lumbar_rotation
      1.16350000	     -2.41829261	     -6.83816828	     -8.82524463	     -0.07537457	      0.99777568	      0.29971847	    -13.88367773	      6.73408437	     -0.07540593	     -4.83627915	      4.33407475	     -4.36387073	      0.10180240	     24.12196526	    -10.71845541	    -14.30734712	      2.51940392	      4.99290763	     -5.09659661	    -16.84308236	     -8.91914746	      7.58681658	     11.26251000
      1.16766667	     -2.32974167	     -6.78409623	     -9.10570151	     -0.06960518	      0.99736076	      0.29998423	    -14.15942627	      6.51228264	      0.12418392	     -5.15513953	      4.38458111	     -4.21446346	      0.39068203	     23.97752956	    -10.75442476	    -14.34033481	      2.17715967	      4.99553444	     -5.28556243	    -16.80397027	     -9.01267949	      7.40997365	     11.52829051
      1.17183333	     -2.22923568	     -6.69936651	     -9.40171310	     -0.06378206	      0.99701513	      0.30028799	    -14.43071592	      6.25014902	      0.32268133	     -5.49232014	      4.37031711	     -4.08618150	      0.81103593	     23.80506453	    -10.76381519	    -14.38357027	      1.79424315	      4.97894951	     -5.49554391	    -16.73571323	     -9.11585450	      7.17819556	     11.85410993
      1.17600000	     -2.19198739	     -6.65984445	     -9.65058759	     -0.05797784	      0.99656255	      0.30051396	    -14.63738323	      6.05864628	      0.52325228	     -5.83359820	      4.38183573	     -3.96733090	      0.94017516	     23.75188808	    -10.81416216	    -14.35452052	      1.28024947	      4.99278786	     -5.73582964	    -16.71201453	     -9.13423479	      7.02862862	     11.93383318
      1.18016667	     -2.00400477	     -6.53428409	     -9.95260807	     -0.05204080	      0.99645092	      0.30084097	    -14.99402757	      5.72865090	      0.72680768	     -6.15867416	      4.30867327	     -3.84120716	      1.58036650	     23.46661460	    -10.76928542	    -14.47308662	      0.83266583	      4.84647514	     -6.03910726	    -16.57615694	     -9.30893931	      6.73020817	     12.43997371
      1.18433333	     -1.98031887	     -6.47925968	    -10.24151931	     -0.04623949	      0.99607220	      0.30111242	    -15.12943103	      5.50906434	      0.93070270	     -6.59693907	      4.30399755	     -3.71799890	      1.71636907	     23.40780912	    -10.81829664	    -14.49060370	      0.27288357	      4.70983707	     -6.34632805	    -16.54666557	     -9.31938232	      6.56111369	     12.48754244
      1.18850000	     -1.88180647	     -6.34956375	    -10.53077065	     -0.04028252	      0.99588201	      0.30137307	    -15.34623526	      5.18861188	      1.10837171	     -7.00086696	      4.26205234	     -3.57520913	      2.02712818	     23.22218168	    -10.76611354	    -14.55226594	     -0.21744140	      4.37899412	     -6.78896962	    -16.47051298	     -9.37650104	      6.28176889	     12.88888111
      1.19266667	     -1.75230137	     -6.23149497	    -10.81302532	     -0.03434125	      0.99577619	      0.30160859	    -15.57703140	      4.87280541	      1.27706941	     -7.43153918	      4.15986083	     -3.44537182	      2.38316023	     23.00307753	    -10.71747375	    -14.62582866	     -0.72887494	      4.06544626	     -7.20270256	    -16.37342842	     -9.48082324	      6.00727838	     13.15930260
      1.19683333	     -1.51823577	     -6.10086920	    -11.04045447	     -0.02834367	      0.99586309	      0.30169255	    -15.91725397	      4.52101801	      1.35092789	     -7.83459574	      3.91894026	     -3.26847718	      3.39851554	     22.66278309	    -10.60603852	    -14.66466825	     -1.21511648	      3.74883691	     -7.61828707	    -16.05822696	     -9.70673524	      5.70112835	     13.55811747
      1.20100000	     -1.54035044	     -5.99460668	    -11.32420142	     -0.02238058	      0.99560712	      0.30191942	    -15.94387930	      4.25045081	      1.54374829	     -8.34568475	      3.78311070	     -3.17866324	      3.56858864	     22.62246791	    -10.59585935	    -14.77452051	     -1.77242129	      3.32517877	     -7.97770191	    -16.00954383	     -9.61977197	      5.48412592	     13.53656414
      1.20516667	     -1.41642951	     -5.84569968	    -11.51981702	     -0.01632183	      0.99559968	      0.30188867	    -16.11555616	      3.90428190	      1.53778448	     -8.82563521	      3.50476715	     -3.11082693	     11.86607959	     22.40479332	    -10.45705154	    -14.79138687	     -2.23859280	      2.75315089	     -8.55918450	    -13.07364039	     -9.68138288	      5.19259188	     13.81853902
      1.20933333	     -1.39418409	     -5.71600668	    -11.74838889	     -0.01028611	      0.99549797	      0.30196086	    -16.15786421	      3.60142616	      1.63039780	     -9.36017263	      3.23414736	     -2.96130357	     11.88074407	     22.30633929	    -10.38349075	    -14.89691861	     -2.75234400	      2.22455027	     -8.93829528	    -13.06919560	     -9.63549678	      4.94293079	     13.91529870
      1.21350000	     -1.27450658	     -5.53504449	    -11.93972423	     -0.00421278	      0.99558548	      0.30188755	    -16.26841239	      3.22147529	      1.62786188	     -9.93921845	      3.03091729	     -2.79485880	     11.94229818	     22.07749840	    -10.20259603	    -14.94257177	     -3.18254776	      1.60787237	     -9.54248971	    -13.03774951	     -9.68577484	      4.61273006	     14.19929293
      1.21766667	     -1.19321233	     -5.36695754	    -12.11186004	      0.00188756	      0.99566429	      0.30180247	    -16.32928293	      2.87035334	      1.62448740	    -10.52426794	      2.70531292	     -2.63776005	     12.02071605	     21.90335033	    -10.04375290	    -15.03420573	     -3.63305806	      0.96553466	    -10.01908488	    -13.00142255	     -9.68323757	      4.31227031	     14.31484716
      1.22183333	     -1.13271862	     -5.19008965	    -12.26112022	      0.00799150	      0.99575938	      0.30163634	    -16.33428441	      2.51618798	      1.58036022	    -11.16186964	      2.35274505	     -2.46824318	     12.12718548	     21.75407452	     -9.86643201	    -15.10372355	     -4.07215892	      0.30961887	    -10.50232493	    -12.95441853	     -9.66044159	      4.01309077	     14.44510644
      1.22600000	     -1.02904583	     -5.00997702	    -12.35113642	      0.01411334	      0.99594638	      0.30132117	    -16.37230394	      2.15602248	      1.46750881	    -11.81052502	      1.97904104	     -2.23957172	     12.31887752	     21.57334936	     -9.65097830	    -15.14345840	     -4.50896944	     -0.38378647	    -11.03799332	    -12.86942544	     -9.68168723	      3.70965011	     14.57030684
      1.23016667	     -1.00812163	     -4.84491749	    -12.45017501	      0.02023845	      0.99607899	      0.30110264	    -16.30020549	      1.84165983	      1.40971406	    -12.49301664	      1.45115921	     -2.12712168	     12.40826681	     21.49046086	     -9.49232226	    -15.25173477	     -4.98330267	     -0.98328056	    -11.28919787	    -12.83541981	     -9.61202027	      3.44006519	     14.56842098
      1.23433333	     -0.86788637	     -4.62603321	    -12.48374785	      0.02636214	      0.99639803	      0.30055878	    -16.29393022	      1.42853666	      1.16364576	    -13.27075683	      1.06291562	     -1.82327257	     12.78950016	     21.26028112	     -9.18719334	    -15.20842205	     -5.35540929	     -1.68671319	    -11.95954658	    -12.67895474	     -9.66756035	      3.10758468	     14.69338888
      1.23850000	     -0.83025284	     -4.40665670	    -12.52225195	      0.03252341	      0.99661947	      0.30011017	    -16.15751473	      1.05019360	      0.96995220	    -14.08187790	      0.57154123	     -1.60790364	     13.32410298	     21.15955537	     -8.92668509	    -15.23991588	     -5.78607503	     -2.30982491	    -12.41672199	    -12.47092371	     -9.59703457	      2.79152760	     14.67901622
      1.24266667	     -0.79661442	     -4.18555213	    -12.54801406	      0.03867316	      0.99688097	      0.29965469	    -15.98704731	      0.67707746	      0.78406131	    -14.93810489	      0.03465984	     -1.43461953	     13.95150277	     21.07251612	     -8.66875290	    -15.29681715	     -6.23999420	     -2.86069874	    -12.79408382	    -12.23922384	     -9.52109839	      2.47136384	     14.65092109
      1.24683333	     -0.77378626	     -3.97204590	    -12.55149106	      0.04485932	      0.99717167	      0.29929413	    -15.79901717	      0.34060269	      0.64332339	    -15.80114012	     -0.61279106	     -1.45243222	     14.07134752	     21.01613444	     -8.44291189	    -15.42859576	     -6.75501769	     -3.25014274	    -12.85669644	    -12.19978211	     -9.42932508	      2.14185624	     14.58924517
      1.25100000	     -0.75992832	     -3.71008179	    -12.57223374	      0.05100301	      0.99747430	      0.29880470	    -15.50953139	     -0.07313832	      0.42528377	    -16.82224124	     -1.10942683	     -1.28845573	     14.37160090	     20.93992646	     -8.14538684	    -15.50103844	     -7.18649673	     -3.71946927	    -13.17903384	    -12.10635275	     -9.31388584	      1.79450144	     14.56957913
      1.25516667	     -0.72253020	     -3.49644120	    -12.53374730	      0.05713291	      0.99784967	      0.29831294	    -15.26575457	     -0.41126740	      0.24875715	    -17.79206032	     -1.83402606	     -1.21739491	     14.52617044	     20.87516348	     -7.89712644	    -15.56891243	     -7.70934129	     -4.01137384	    -13.28607077	    -12.06060332	     -9.25257840	      1.46662717	     14.51300698
      1.25933333	     -0.74653018	     -3.21654132	    -12.48166372	      0.06325046	      0.99811267	      0.29764481	    -14.85926326	     -0.82693750	     -0.04496686	    -18.94686909	     -2.32250227	     -1.01688831	     14.92451722	     20.86692535	     -7.56140194	    -15.56537253	     -8.16812564	     -4.39498160	    -13.58775717	    -11.95161661	     -9.09234369	      1.12368217	     14.42744952
      1.26350000	     -0.68783725	     -2.99514550	    -12.41047043	      0.06933427	      0.99856803	      0.29709770	    -14.56445885	     -1.16839686	     -0.23162997	    -20.03227386	     -3.08932923	     -1.00823421	     15.06874040	     20.77689853	     -7.29167342	    -15.60335940	     -8.69268530	     -4.51903747	    -13.61441643	    -11.91241938	     -9.05810825	      0.78388328	     14.34267610
      1.26766667	     -0.79412220	     -2.71910755	    -12.28760741	      0.07536279	      0.99869443	      0.29622649	    -13.99146113	     -1.55538269	     -0.56915322	    -21.32589752	     -3.60206115	     -0.75802379	     15.77562844	     20.88859742	     -6.94415520	    -15.46928409	     -9.20165709	     -4.71018913	    -13.94752240	    -11.74306354	     -8.82626764	      0.48563599	     14.17857123
      1.27183333	     -0.94138934	     -2.47071709	    -12.01930202	      0.08143354	      0.99873034	      0.29514443	    -13.39602776	     -1.86745063	     -1.00839370	    -22.59548784	     -4.27155180	     -0.71343765	     18.36315382	     21.08768132	     -6.59025810	    -15.20035908	     -9.76018233	     -4.85263318	    -14.10175728	    -11.17936649	     -8.54739535	      0.22540461	     13.95456408
      1.27600000	     -0.82876446	     -2.20233430	    -12.01371202	      0.08742530	      0.99934226	      0.29475545	    -13.01430609	     -2.27815647	     -1.09422477	    -23.90374439	     -4.93334431	     -0.77019844	     18.44033004	     20.88161826	     -6.28930188	    -15.36074627	    -10.20202603	     -4.85054198	    -13.97484426	    -11.16074274	     -8.57296884	     -0.18134952	     13.81570732
      1.28016667	     -0.83964869	     -1.92499007	    -11.97108490	      0.09330933	      0.99968856	      0.29418531	    -12.42898985	     -2.68027833	     -1.24124130	    -25.35520609	     -5.42772947	     -0.67429781	     18.66042122	     20.84602623	     -5.98207861	    -15.45031547	    -10.68754589	     -4.84769104	    -13.93706635	    -11.11596254	     -8.46341628	     -0.53723136	     13.75105593
